<svg width="256" height="256" viewBox="0 0 100 100" xmlns="http://www.w3.org/2000/svg">
  <g transform="translate(50,50) scale(1.2)">
    <!-- Background circle -->
    <circle cx="0" cy="0" r="48" fill="#333740"/>
    <circle cx="0" cy="0" r="44" fill="#4A505A"/>

    <!-- Sword 1 -->
    <g transform="rotate(45) translate(0, -5)">
      <rect x="-3" y="-35" width="6" height="50" rx="1" fill="#A9A9A9"/>
      <rect x="-8" y="15" width="16" height="4" rx="1" fill="#6B4F34"/>
      <rect x="-2.5" y="19" width="5" height="5" rx="1" fill="#FFD700"/>
    </g>
    <!-- Sword 2 -->
    <g transform="rotate(-45) translate(0, -5)">
      <rect x="-3" y="-35" width="6" height="50" rx="1" fill="#C0C0C0"/>
      <rect x="-8" y="15" width="16" height="4" rx="1" fill="#8B4513"/>
      <rect x="-2.5" y="19" width="5" height="5" rx="1" fill="#F0E68C"/>
    </g>
    <!-- Shield -->
    <path d="M -30 -30 L 30 -30 L 30 10 C 30 30 0 40 0 40 C 0 40 -30 30 -30 10 Z" fill="#4682B4" stroke="#2E5A80" stroke-width="2"/>
    <path d="M -20 -20 L 20 -20 L 20 5 C 20 20 0 30 0 30 C 0 30 -20 20 -20 5 Z" fill="#5A9BD8" />
     <path d="M 0 -22 L 0 25" stroke="#2E5A80" stroke-width="2"/>
  </g>
</svg>
